<?xml version="1.0" standalone="no"?>
<!DOCTYPE svg PUBLIC "-//W3C//DTD SVG 20010904//EN"
 "http://www.w3.org/TR/2001/REC-SVG-20010904/DTD/svg10.dtd">
<svg version="1.0" xmlns="http://www.w3.org/2000/svg"
 width="437.000000pt" height="437.000000pt" viewBox="0 0 437.000000 437.000000"
 preserveAspectRatio="xMidYMid meet">
<metadata>
Created by potrace 1.11, written by Peter Selinger 2001-2013
</metadata>
<g transform="translate(0.000000,437.000000) scale(0.100000,-0.100000)"
fill="#000000" stroke="none">
<path d="M1790 4269 c-472 -41 -817 -117 -1076 -239 -171 -80 -264 -154 -316
-252 -22 -41 -23 -53 -23 -248 0 -195 1 -207 23 -250 80 -153 346 -297 712
-385 207 -50 450 -87 660 -102 214 -15 832 -8 935 11 11 2 47 7 80 10 618 71
1089 268 1177 491 16 40 18 71 15 238 -3 216 -7 230 -77 310 -161 182 -591
331 -1145 396 -49 6 -110 13 -135 16 -77 10 -730 13 -830 4z"/>
<path d="M370 2681 c0 -110 5 -222 10 -248 23 -105 127 -201 315 -293 263
-127 638 -213 1080 -247 196 -15 828 -8 932 11 10 2 45 7 78 10 201 23 487 83
655 137 119 39 319 136 384 186 78 60 133 133 145 195 7 31 10 134 9 250 l-3
196 -65 -39 c-358 -218 -936 -342 -1650 -353 -672 -11 -1298 93 -1685 280 -52
25 -110 56 -129 69 -83 56 -76 71 -76 -154z"/>
<path d="M371 1764 c1 -181 4 -226 18 -262 65 -164 340 -317 741 -411 220 -52
374 -75 675 -101 98 -8 740 -6 800 4 17 2 59 7 95 11 573 56 1056 222 1212
416 62 78 66 101 68 344 l1 217 -43 -26 c-145 -89 -338 -171 -534 -226 -112
-31 -372 -83 -479 -95 -33 -4 -68 -9 -77 -10 -9 -2 -48 -7 -85 -10 -37 -4 -77
-9 -88 -11 -39 -7 -344 -19 -505 -19 -159 0 -406 10 -500 20 -25 3 -88 10
-140 16 -244 26 -544 90 -734 155 -102 35 -304 130 -384 180 l-43 26 2 -218z"/>
<path d="M370 875 c0 -113 5 -225 11 -248 49 -197 422 -385 944 -477 300 -53
460 -65 850 -65 258 0 450 7 540 20 17 2 84 11 150 20 308 42 571 112 773 206
164 77 266 158 314 249 22 43 23 57 26 274 2 125 0 226 -5 223 -4 -2 -37 -22
-73 -44 -240 -144 -595 -251 -1010 -303 -47 -6 -98 -12 -115 -15 -16 -2 -59
-6 -95 -9 -36 -3 -95 -8 -132 -11 -37 -4 -170 -7 -295 -9 -388 -5 -721 22
-1053 85 -307 59 -558 146 -750 262 -36 22 -68 41 -72 44 -5 2 -8 -89 -8 -202z"/>
</g>
</svg>
